<svg xmlns="http://www.w3.org/2000/svg" width="1483px" height="995px" version="1.1" viewBox="0 0 1483 994.93" xmlns:xlink="http://www.w3.org/1999/xlink">
 <defs>
  <style type="text/css">
    .fil0 {fill:#FEFEFE}
  </style>
 </defs>
 <g>
  <path class="fil0" d="M463.37 994.93c0,0 51.86,-20 69.98,-61.86 18.12,-41.86 24.02,-99.98 92.16,-148.4 68.14,-48.41 34.05,-49.39 9.62,-56.93 -26.31,-8.12 -46.95,-11.42 -74.79,-22.64 -27.83,-11.22 -11.64,-10.47 33.86,-6.65 45.5,3.83 78.72,14.96 82.46,10.8 3.74,-4.15 25.31,-72.37 45.07,-158.25 3.15,-13.69 7.91,-28.7 13.64,-44.32 47.21,87.82 106.95,199.28 114.11,213.03 11.56,22.18 52.49,29.05 52.49,29.05 0,0 -33.74,4.69 -20.93,25.31 12.81,20.62 97.78,132.15 101.53,172.13 3.75,39.99 -8.35,43.96 -11.85,48.73 0,0 41.24,-11.88 45.61,-54.99 4.38,-43.11 0.32,-81.54 55.61,-139.64 55.3,-58.11 48.57,-49.96 12.5,-70.3 -29.37,-16.55 -59.84,-13.18 -65.01,-15.07 -5.17,-1.9 21.19,-18.45 60.91,-3.87 39.72,14.57 43.88,8.6 49.5,2.35 35.33,-39.25 87.69,-139.7 114.99,-193.55 23.65,-46.69 -54.06,-57.78 -54.06,-57.78 0,0 83.58,-3.64 102.68,-39.5 38.26,-71.86 71.18,-150.33 66.19,-161.37 -2.26,-5 -8.16,-9.31 -17.58,-13.1l-0.05 -0.03c-24.63,-11.63 -21.43,-7.39 12.31,-23.35 42.42,-20.08 34.05,-52.16 69.15,-88.49 63.73,-65.95 63,-134.53 56.86,-136.21 -6.13,-1.67 -13.05,61.11 -234.81,49.5 -22.26,-1.17 -38.55,39.04 -54.84,78.21 -27.85,44.71 -46.84,74.62 -99.32,91.19 -4.92,1.55 -8.66,2.46 -10.05,4.98 -3.17,5.78 66.14,4.68 53.74,20.61 -3.95,5.07 1.56,7.5 -51.55,58.73 -53.11,51.24 -47.8,83.73 -52.17,126.84 -4.38,43.11 -16.25,46.24 -16.25,46.24 7.53,-10.26 -105.76,-190.73 -119.05,-212.11 -12.81,-20.62 20.94,-25.31 20.94,-25.31 0,0 -62.63,-55.72 -77.79,-75.6 -88.93,-116.58 50.96,-118.64 -0.34,-121.71 -51.32,-3.07 -123.34,-6.86 -224.59,159.51 -5.67,9.3 20.37,26.33 55.62,44.18 -9.44,-1.27 -158.43,-22.65 -103.28,-0.42 70.78,28.52 25.19,54.72 -22.93,88.38 -49.19,34.4 -47.8,83.72 -52.17,126.83 -4.38,43.12 -3.14,58.13 -3.14,58.13 0.75,-1.02 -120.73,-205.61 -132.16,-224 -12.81,-20.62 20.94,-25.31 20.94,-25.31 -22.16,-17.86 -96.54,-88.19 -110.88,-113.85 -11.88,-21.24 -63.51,-94.04 3.87,-97.62 40.97,-2.17 -38.13,-19.38 -70.46,-19.53 -114.95,-0.52 -152.19,14.68 -174.59,28.12 -37.48,22.49 -28.74,39.99 -1.25,97.47 27.49,57.48 35.5,55.54 64.96,71.36 29.46,15.82 118.2,42.88 118.2,42.88 0,0 -22.92,5.86 -69.78,-1.64 -66.64,-10.66 21.24,102.47 33.12,123.71 11.87,21.25 134.95,251.18 146.51,273.36 11.56,22.18 77.79,75.6 77.79,75.6 0,0 -33.74,4.69 -20.93,25.31 12.81,20.62 97.78,132.15 101.53,172.13 3.75,39.99 -8.35,43.96 -11.85,48.73z"/>
 </g>
</svg>
